<svg xmlns="http://www.w3.org/2000/svg" viewBox="0 0 1353.81 688.41"><defs><style>.cls-1{fill:#fff;}.cls-2{fill:#ff4824;}.cls-3{stroke:#000;stroke-miterlimit:10;}</style></defs><title>çizgiler siyaz doguVarlık 1</title><g id="katman_2" data-name="katman 2"><g id="katman_1-2" data-name="katman 1"><path class="cls-1" d="M631.65,319.29q7.47,6.1,7.47,13.92,0,6.57-4.24,17.45L623.8,379l-1.24,3.3a28.63,28.63,0,0,0-2.37,8.67q-.27,5.13,10.71,5.74,8.6.48,12.08,3.23t3.48,9q0,8.31-5.91,13.12T624.3,426.9h-5.1l-4.2-.19-9-.24q-25.41,0-25.4-17.21,0-8.55,4.85-21L598,356q3.48-8.79,3.49-13.68,0-4.53-6.11-8.3-5.22-3-6.72-5.06a9.82,9.82,0,0,1-1.49-5.92q0-14.91,17.18-18.56,8.46-1.83,13.38-6.65t9-15.32L636.88,257q14.94-38.2,49-38.21l5.61-.25,4.23-.12h5.6q14.94,0,15,12.09,0,18.06-24.78,18.06-11,0-15,3.06t-8.65,14.64l-8.47,21.61q-4.86,12.45-10.77,19.17T631.65,319.29Z"/><path class="cls-1" d="M732.4,318.8h3.09q12.63,0,12.65,8.7a10.88,10.88,0,0,1-4.48,9.27q-4.5,3.33-12.35,3.32H724l-13.35,32.13H721.8q12.66,0,12.65,8.69a10.93,10.93,0,0,1-4.43,9.28q-4.42,3.3-12.4,3.32H699.83q-7.59,0-12-3.42a11.09,11.09,0,0,1-4.44-9.27,21.2,21.2,0,0,1,1.8-8l1.89-4.3,11.75-28.42h-1.49q-11.16,0-11.16-8.49a11.13,11.13,0,0,1,4.44-9.43q4.43-3.36,12.4-3.37h4.58l5.28-12.8,1.09-2.64q4.68-10.83,14.75-10.84a10,10,0,0,1,7,2.69,8.49,8.49,0,0,1,2.94,6.49c0,2.48-.87,5.6-2.59,9.38Z"/><path class="cls-1" d="M791.87,323q10.46-5.58,17.23-5.56,9.57,0,15.69,5.22A16.76,16.76,0,0,1,830.91,336a28,28,0,0,1-2.39,10.65l-10.45,25.58h11.45q12.56,0,12.55,8.69a10.93,10.93,0,0,1-4.43,9.28q-4.44,3.3-12.4,3.32h-20A16.35,16.35,0,0,1,794.53,390a10.92,10.92,0,0,1-4.34-8.74,24.23,24.23,0,0,1,2.3-9l9.16-22.07a18.92,18.92,0,0,0,1.69-6.35q0-5.58-7.57-5.56-10.15,0-17.13,17l-11.16,26.86q-5.28,12.79-15.63,12.79a10.27,10.27,0,0,1-7-2.54,7.91,7.91,0,0,1-2.89-6.15,17.68,17.68,0,0,1,1.5-6.45l1.09-2.63,43.33-104.79q5.67-13.47,15.54-13.48a10,10,0,0,1,7,2.69,8.5,8.5,0,0,1,2.93,6.49c0,2.09-.87,5.18-2.59,9.28Z"/><path class="cls-1" d="M869.76,364.9q0,7.32,11.26,7.32H910.6q12.54,0,12.55,8.69a10.93,10.93,0,0,1-4.43,9.28q-4.44,3.3-12.4,3.32H878.13q-15.75,0-24-7.62T846,363.63a45.49,45.49,0,0,1,13-32.52q13-13.68,30.92-13.67,13.05,0,21,6.69t7.92,17.62q0,13.17-11,19.53-6.08,3.62-18.13,3.62Zm4.78-17.78h11c7.11,0,10.56-1.52,10.36-4.59q-.3-5.17-6.87-5.17-9.21,0-14.49,9.76Z"/><path class="cls-1" d="M951.84,340.19l-3.39,8.2q-4.59,11-12,10.94a10.86,10.86,0,0,1-7.47-2.64,8.34,8.34,0,0,1-3-6.54c0-1.5.73-4,2.19-7.62l11.26-27.24q4.08-9.87,11.55-9.86t9.07,6.83l.8,3c.39,1.56,1,2.54,1.79,2.93s2.75.58,5.88.58h23.3q13,0,13,9,0,12.41-16.53,12.4l-1.1,1Q971.46,356,971.46,364.12t9.17,8.1h12.55q12.65,0,12.65,8.6a11,11,0,0,1-4.43,9.37q-4.41,3.31-12.4,3.32H969.47q-10,0-16.28-6.74t-6.33-17.48A28.12,28.12,0,0,1,950.25,356q3.38-6.45,12-15.82Z"/><path class="cls-1" d="M1034.12,364.9q0,7.32,11.25,7.32H1075q12.54,0,12.55,8.69a10.93,10.93,0,0,1-4.43,9.28q-4.44,3.3-12.41,3.32h-28.18q-15.75,0-24-7.62t-8.22-22.26a45.49,45.49,0,0,1,13-32.52q13-13.68,30.93-13.67,13,0,21,6.69t7.92,17.62q0,13.17-11,19.53-6.09,3.62-18.13,3.62Zm4.78-17.78h11c7.1,0,10.55-1.52,10.36-4.59q-.3-5.17-6.88-5.17-9.21,0-14.48,9.76Z"/><path class="cls-1" d="M1159.33,372.22h11q12.56,0,12.55,8.6a11,11,0,0,1-4.48,9.32q-4.5,3.38-12.35,3.37H1153.3q-8.58,0-11.65-6.54-7.47,6.54-14.45,6.54h-11.4q-11,0-17.68-7.66t-6.73-20.07q0-18.75,13.2-33.55t29.83-14.79q12.75,0,18.63,8.69,5-7.32,13-7.33a10.33,10.33,0,0,1,7.32,2.74,8.86,8.86,0,0,1,2.94,6.74,17.85,17.85,0,0,1-1.59,6.54l-1.1,2.64Zm-36.16.49h2.49q8.16,0,10.86-6.54l7-16.9a15.13,15.13,0,0,0,1.39-5.56,5.61,5.61,0,0,0-2.64-4.59,10.32,10.32,0,0,0-6.32-2q-7.29,0-14.15,8.3t-6.87,17.19q0,10.11,8.24,10.1Z"/><path class="cls-1" d="M1213.32,372.22h10.45q12.66,0,12.65,8.69a10.93,10.93,0,0,1-4.43,9.28q-4.42,3.3-12.4,3.32h-17.93q-7.38,0-11.65-3.42a11.09,11.09,0,0,1-4.29-9.18c0-2,1-5.37,2.89-10l40.24-97.08,1.1-2.63q4.58-10.93,14.64-10.94a10.07,10.07,0,0,1,7.12,2.73,8.66,8.66,0,0,1,2.94,6.55,18.09,18.09,0,0,1-1.49,6.64l-1.1,2.64Z"/><path class="cls-1" d="M1303.61,327.09q-7.35-6-7.35-13.82,0-6.36,4.16-17l10.91-27.87,1.22-3.24a30.39,30.39,0,0,0,2.21-8.53q.24-5.07-10.54-5.65c-5.56-.32-9.47-1.38-11.76-3.18S1289,243,1289,238.92q0-8.16,5.82-12.91t16-4.75h5l4.17.12,8.82.24q25,0,25,16.94,0,8.4-4.78,20.66l-12.37,31.71q-3.44,8.64-3.43,13.45,0,4.44,6,8.17,5.14,3,6.62,5a9.69,9.69,0,0,1,1.47,5.82q0,14.52-16.91,18.26-8.46,1.92-13.23,6.61t-8.82,15l-9.93,25.11q-14.7,37.59-48.27,37.59l-5.51.24-4.17.12H1235q-14.7,0-14.71-11.89,0-17.78,24.39-17.78c7.18,0,12.11-1,14.76-3s5.49-6.8,8.52-14.41l8.33-21.26q4.77-12.27,10.59-18.86T1303.61,327.09Z"/><path class="cls-2" d="M578.71,94.56C558.5,77,464.33-.93,326.79,6.44,241.22,11,172.88,51.71,167.71,54.83a325.18,325.18,0,0,0-36.28,25.32C27.77,164.09,10.27,300,9.5,306.94,6.41,333.56-2.14,418.56,47.5,508,118.41,635.84,250.27,668.43,272,673.44c29.39,6.75,133.36,26.62,237.32-28.77a320.15,320.15,0,0,0,82.14-62.92L478.3,468.51c-73.89,48.65-160.67,57.93-220.89,21.58-39.26-23.74-59.91-62.45-62.06-66.58-4.53-8.71-25.11-50.2-16.8-103.56,8.18-52.62,43.72-112.15,109.9-137.35A177.44,177.44,0,0,1,463.7,211.4Q521.21,153,578.71,94.56Z"/><path class="cls-3" d="M352.31,687.91a373.4,373.4,0,0,1-82.49-9.17C233.56,670.39,110,633.61,41.74,510.68A327.77,327.77,0,0,1,2.31,384.47a350.39,350.39,0,0,1,.79-78.16c.16-1.51,4.38-38.17,22.7-85.84C49,160.16,83,111.53,127,75.93a331.45,331.45,0,0,1,36.9-25.76C171.43,45.63,240,5.6,325.49,1,455.37-6,547.63,61.24,581.27,90.46l4.37,3.79-4.06,4.12-115,116.84-3.48,3.54-3.84-3.15a172.49,172.49,0,0,0-169.88-27.92c-67.21,25.59-99.06,85.54-106.45,133.1-7.46,47.91,8.88,86.05,16.25,100.22,2.18,4.2,22.45,41.7,60.05,64.44,57.83,34.91,142.26,26.48,215.09-21.47l3.7-2.44,120,120.1-3.6,3.84a324.6,324.6,0,0,1-83.54,64c-45.1,24-95.25,36.93-149,38.33Q357.1,687.91,352.31,687.91ZM344.2,11.38q-8.94,0-18.12.49c-82.85,4.44-149.27,43.21-156.57,47.61a322.2,322.2,0,0,0-35.68,24.91c-42.45,34.37-75.39,81.47-97.88,140-17.83,46.37-22,82.8-22.05,83.17C3.54,396.77,28.49,464.38,51.25,505.4c66,119,185.85,154.65,221,162.74,37.92,8.71,136.59,23.39,233.55-28.27a313.52,313.52,0,0,0,77.1-58L476.56,475.46c-43.71,27.86-91.35,42.15-135.42,42.15-32,0-62.13-7.53-87.54-22.87C214.29,471,193.33,433.32,189.52,426c-7.86-15.13-25.3-55.82-17.34-106.91a188.24,188.24,0,0,1,34.19-81.35,176.26,176.26,0,0,1,79.14-60.24,183.41,183.41,0,0,1,176.75,26.58Q516,149.49,569.73,94.91C535.75,66.5,455.44,11.38,344.2,11.38Z"/><path class="cls-3" d="M315.64,598.39h-.26a16.14,16.14,0,0,1,.28-32.28h.23a16.14,16.14,0,0,1-.25,32.28Zm-.13-28.28a12,12,0,0,0-12,11.88v.07a12.14,12.14,0,1,0,12.33-11.95h-.33Z"/><path class="cls-3" d="M401,62.3H165.06l7.59-4.57L401,58.3Z"/><path class="cls-3" d="M409.62,70.79a10.54,10.54,0,1,1,10.67-10.54A10.54,10.54,0,0,1,409.62,70.79Zm0-17.08a6.54,6.54,0,1,0,6.67,6.54A6.54,6.54,0,0,0,409.62,53.71Z"/><path class="cls-3" d="M352,125.86a10.54,10.54,0,1,1,10.66-10.54A10.54,10.54,0,0,1,352,125.86Zm0-17.08a6.54,6.54,0,1,0,6.66,6.54A6.61,6.61,0,0,0,352,108.78Z"/><polygon class="cls-3" points="419.02 150.88 281.65 150.29 233.89 96.89 236.88 94.23 283.44 146.29 417.45 146.88 451.6 115.27 454.31 118.21 419.02 150.88"/><path class="cls-3" d="M342.13,111.07,319,97.56H119.29l4.17-3.79L320,93.53l24.39,14.26a22.7,22.7,0,0,0-1.44,1.94C342.69,110.2,342.4,110.64,342.13,111.07Z"/><path class="cls-3" d="M460.17,122.57A10.54,10.54,0,1,1,470.84,112,10.54,10.54,0,0,1,460.17,122.57Zm0-17.08a6.54,6.54,0,1,0,6.67,6.54A6.62,6.62,0,0,0,460.17,105.49Z"/><path class="cls-3" d="M238.27,204.22H44.36c.65-1.47,1.31-2.93,2-4.4l198.15-.21Z"/><path class="cls-3" d="M94.79,182.38H55.06l2.25-4H93.18l20.69-19.77h41.78l32.78-27,2.55,3.08-33.9,28h-41.6Z"/><path class="cls-3" d="M197.43,138A13.39,13.39,0,1,1,211,124.65,13.39,13.39,0,0,1,197.43,138Zm0-22.78a9.39,9.39,0,1,0,9.58,9.39,9.49,9.49,0,0,0-9.58-9.36Z"/><path class="cls-3" d="M187.05,192.32,156.9,162.68l2.91-2.34,29.85,29.18Z"/><path class="cls-3" d="M196,253.22,26.48,253c.47-1.42.94-2.83,1.42-4.25l170.79-.21Z"/><path class="cls-3" d="M93.6,288.21l-75.91-.12c.33-1.29.67-2.58,1-3.87h73.5l25.61-20.38,72.39-.2-2,4.17H119.24Z"/><path class="cls-3" d="M145.51,324.44H12.75l.38-4h131l34.4-28.14-2.12,7Z"/><path class="cls-3" d="M170.23,353.09,12,353v-4.07l158-.31C170.12,350.09,170.17,351.59,170.23,353.09Z"/><path class="cls-3" d="M182.86,411.59l-31.08-23.08-137.47.17c-.14-1.37-.27-2.73-.41-4.09l139.21-.08L179.9,403.8C180.88,406.4,181.86,409,182.86,411.59Z"/><path class="cls-3" d="M127.68,452.11,28.31,452q-.78-2.29-1.58-4.58l92,.68-22-24.47-76.27-.13-1.08-4,79.14.13Z"/><path class="cls-3" d="M52.8,506.92l-2.49-4.13,218-.16,9.5,3.94Z"/><path class="cls-3" d="M220.32,546.89H115.08L89.52,521.72H61.38c-.84-1.31-1.67-2.63-2.5-3.94l32.29-.1,25.54,25.17h102L255.1,506.8h6.59Z"/><path class="cls-3" d="M536.66,535.85,433.37,536,403,508.88l5.75-1.79L434.9,532l97.66-.32Z"/><path class="cls-3" d="M531.33,606.5a14.14,14.14,0,1,1,14.33-14.14A14.14,14.14,0,0,1,531.33,606.5Zm0-24.28a10.14,10.14,0,1,0,10.33,10.14,10.25,10.25,0,0,0-10.33-10.14Z"/><path class="cls-3" d="M217,612.18l-2.59-3,66.91-56.81,214.54,2.42,27.11,26-3,2.73-25.71-24.74L282.8,556.4Z"/><path class="cls-3" d="M281.07,612.66H149l-5.59-3.94,136.27-.09,21.89-17.58,3.49,3.82Z"/><path class="cls-3" d="M386.25,620.9a15.33,15.33,0,1,1,15.54-15.33A15.33,15.33,0,0,1,386.25,620.9Zm0-26.66a11.33,11.33,0,1,0,11.54,11.33,11.46,11.46,0,0,0-11.54-11.33Z"/><path class="cls-3" d="M352.13,641.73H198.63l-9.1-4.25,161.07.28L374.75,616l2.9,2.79Z"/><path d="M353.17,472l-71.41-.09v-3.21l70.19.09,8-7.63a11.19,11.19,0,0,0,1.48,1.52,11.54,11.54,0,0,0,1.61,1.16Z"/><path d="M338.14,454.13H338a7.18,7.18,0,0,1-5.12-2.26,7.58,7.58,0,0,1,.11-10.49,7.07,7.07,0,0,1,5.14-2.11h.09a7.12,7.12,0,0,1,5.12,2.26,7.55,7.55,0,0,1-.16,10.5A7.17,7.17,0,0,1,338.14,454.13Zm-.06-11.65a4,4,0,0,0-2.85,1.19A4.14,4.14,0,0,0,334,446.6h0a4.2,4.2,0,0,0,1.16,3,4.08,4.08,0,0,0,5.85.09,4.28,4.28,0,0,0,.09-5.95,4,4,0,0,0-2.91-1.28h-.12Z"/><rect x="270.24" y="227.82" width="97.87" height="3.22"/><path d="M371.49,234.24a5.13,5.13,0,1,1,5.07-5.19v.06A5.12,5.12,0,0,1,371.49,234.24Zm0-7a1.91,1.91,0,1,0,1.92,1.91,1.93,1.93,0,0,0-1.91-2h0Z"/><path d="M338.42,245.59a5.13,5.13,0,1,1,5.08-5.18v.06A5.12,5.12,0,0,1,338.42,245.59Zm0-7a1.91,1.91,0,1,0,1.92,1.91,1.9,1.9,0,0,0-1.92-1.91h0Z"/><path d="M310.93,247.91H247.65v-3.22h63l22.77-5a5.88,5.88,0,0,0,.72,3.41Z"/><path d="M392.16,256.61a5.12,5.12,0,1,1,5.08-5.16v0a5.11,5.11,0,0,1-5.08,5.12Zm0-7a1.91,1.91,0,1,0,1.93,1.91,1.9,1.9,0,0,0-1.93-1.91h0Z"/><path d="M267.48,295.14H217.37v-3.21h52.15Z"/><path d="M473.58,291.86l-53-.13-2.39-2.26,53.5-.28Z"/><path d="M481.45,312.46l-50.18-.12L429.78,310l50.6.12Z"/><path d="M318.88,386l6.64-3.69,52.87-.16-6.86,3.38Z"/><path d="M398.79,268.62l-5.12-3.35H437.4v3.21Z"/><path d="M346.77,369.8l6-3.59,29.48.34v3.22Z"/><path d="M376.42,352.33l5.13-3,30.21-.05v3.22Z"/><path d="M443.26,332.72l-33.19-.18,5-2.92,28.21-.12Z"/><polygon points="221.95 282.9 221.95 279.69 248.02 279.64 256.38 271.5 273.27 271.5 286.3 260.55 288.3 263.03 274.41 274.72 257.64 274.72 249.29 282.86 221.95 282.9"/><path d="M278.59,280.2l-5.72-5.62,3.61-1.48,4.47,4.56Z"/><path d="M259.47,312h-49V308.8h50.21Z"/><path d="M241.25,326.43H208.71v-3.22h31.83l18.14-8.78-1.31,4Z"/><path d="M254,350.2l-47.36-.06v-3.22h47.23C253.93,348,254,349.11,254,350.2Z"/><path d="M207.1,367.76v-3.21l48.83-.08,1,3.28Z"/><path d="M212.23,382.15v-3.22l31.15-.33-5.91,3.55Z"/><path d="M304.92,440.34H260.26L250.65,433l-6.29,4.17-2.83-3.1,8.81-5.49,11.4,8.58h41.32l4-7.2,3.7,1.58Z"/><path d="M392.69,440q-3.66-5.76-7.3-11.5l3-1.57,5.74,9.29,35.9-11,.9,3.08Z"/><path d="M434.71,432.92a6.61,6.61,0,1,1,6.55-6.67v.07A6.6,6.6,0,0,1,434.71,432.92Zm0-10a3.4,3.4,0,1,0,3.4,3.4h0A3.4,3.4,0,0,0,434.71,422.92Z"/><path d="M324.63,460H265.48V456.8h58L331.4,450a7.78,7.78,0,0,0,2.51,2.92Z"/><path d="M366.15,464.22a7.1,7.1,0,1,1,7-7.2v.1A7.09,7.09,0,0,1,366.15,464.22Zm0-11A3.88,3.88,0,1,0,370,457.1a3.86,3.86,0,0,0-3.89-3.88Z"/><path d="M375.8,257.76l-5.91-2.21,17.8-3.21a5.52,5.52,0,0,0,.13,1.67,5.63,5.63,0,0,0,.72,1.74Z"/><path d="M384.36,373.68a5.11,5.11,0,1,1,5-5.22v.11A5.07,5.07,0,0,1,384.36,373.68Zm0-7a1.9,1.9,0,1,0,1.85,1.95v-.06A1.88,1.88,0,0,0,384.36,366.68Z"/><path d="M415.38,356a5.11,5.11,0,1,1,5-5.22v.12A5.07,5.07,0,0,1,415.38,356Zm0-7a1.9,1.9,0,1,0,1.86,1.94v0a1.88,1.88,0,0,0-1.86-1.9Z"/><path d="M447.27,336.22a5.11,5.11,0,1,1,5-5.22v.11A5.07,5.07,0,0,1,447.27,336.22Zm0-7a1.89,1.89,0,1,0-.06,3.78,1.9,1.9,0,0,0,1.92-1.86v0a1.87,1.87,0,0,0-1.85-1.89Z"/><path d="M442,271.17a5.11,5.11,0,1,1,5-5.22v.12A5.07,5.07,0,0,1,442,271.17Zm0-7a1.89,1.89,0,0,0-.06,3.78,1.9,1.9,0,0,0,1.92-1.86v0a1.87,1.87,0,0,0-1.86-1.88h0Z"/><path d="M289.64,265.18a5.11,5.11,0,1,1,5-5.22v.12A5.07,5.07,0,0,1,289.64,265.18Zm0-7a1.9,1.9,0,1,0,1.85,1.95v-.05A1.88,1.88,0,0,0,289.64,258.18Z"/><path class="cls-1" d="M342,294.08a44.56,44.56,0,0,0-23.92,6.66,48.15,48.15,0,0,0-22,46.7c14.19-8.27,28.08-15.88,41.55-23.28,12.36-6.78,24.13-13.24,35.51-19.84A53.51,53.51,0,0,0,342,294.08ZM290.5,360.2l-1.29-5.36a56.32,56.32,0,0,1,24.52-61c20.58-13,49.75-9.64,69.34,8l4.11,3.7-4.76,2.81c-13.07,7.72-26.54,15.1-40.79,22.93-15,8.23-30.53,16.75-46.37,26.11Z"/><path class="cls-1" d="M318.39,386a46.32,46.32,0,0,0,46.51,3c17.19-8.44,34.37-17.47,51.06-26.83,22.6-12.68,45-26.36,66.59-40.69C470,261.7,419.85,215.93,359.73,209.72,300.85,203.63,243,236.33,219,289.25c-19.56,43.21-9.6,84.67-2.59,104.32l40.31-24.05a92.78,92.78,0,0,1,177.51-54l1,3.15ZM212.25,405.66l-1.8-4.51c-3.73-9.66-22.27-60.51,1-115.27,30.91-72.65,106.84-85,111.69-85.67,19.77-1.74,54.49-1.59,89.82,17a153.76,153.76,0,0,1,32.56,23,149.66,149.66,0,0,1,45.68,82.4l.51,2.67-2.27,1.51c-22.49,15-45.85,29.32-69.43,42.55-16.83,9.43-34.14,18.53-51.47,27a55,55,0,0,1-25.6,5.7,55.74,55.74,0,0,1-34.73-13.44l-4.4-3.77,121.47-70A84.49,84.49,0,0,0,265.58,370l1,3.14Z"/><path class="cls-1" d="M340,486.51c-13.17,0-36.77-.29-63.26-12.95a129.52,129.52,0,0,1-38.85-28.33A123.9,123.9,0,0,1,224,426.88l56.63-28.7,2.19,2.52a82.84,82.84,0,0,0,33.38,23.36c30.43,11.34,58,.7,68.58-4.48L491,357.16l-.63,7.9a118.61,118.61,0,0,1-13.69,47.42c-16.38,30.18-47.89,54.35-86.43,66.3A168,168,0,0,1,340,486.51ZM239.42,430.18c12.18,15.6,26.63,27.55,43,35.53,63.37,30.88,154.21,3.11,186.91-57.15a108,108,0,0,0,11.82-36.08L388.7,426.83l-.13.07c-11.45,5.63-41.7,17.4-75.3,4.88a90.88,90.88,0,0,1-34.48-23.19Z"/></g></g></svg>