<svg xmlns="http://www.w3.org/2000/svg" viewBox="0 0 1352.34 687.4"><defs><style>.cls-1{isolation:isolate;}.cls-2{fill:#ff4824;}</style></defs><title>DoguakkayaayeniVarlık 14</title><g id="katman_2" data-name="katman 2"><g id="katman_1-2" data-name="katman 1"><g class="cls-1"><path d="M630.15,323.28q7.47,6.11,7.47,13.92,0,6.58-4.24,17.45L622.3,383l-1.24,3.3a28.58,28.58,0,0,0-2.37,8.67q-.26,5.13,10.71,5.73,8.6.49,12.08,3.24t3.48,9q0,8.3-5.91,13.12t-16.25,4.83h-5.1l-4.24-.13-9-.24q-25.41,0-25.4-17.21,0-8.55,4.85-21L596.53,360q3.48-8.79,3.49-13.68,0-4.52-6.11-8.3-5.22-3-6.72-5.06a9.85,9.85,0,0,1-1.49-5.92q0-14.9,17.18-18.56,8.46-1.83,13.38-6.65t9-15.32L635.38,261q14.94-38.2,49-38.21l5.61-.25,4.23-.12h5.6q14.94,0,15,12.09,0,18.06-24.78,18.06-11,0-15,3.06t-8.65,14.64l-8.47,21.61q-4.85,12.45-10.77,19.17T630.15,323.28Z"/><path d="M730.9,322.79H734q12.64,0,12.65,8.7a10.86,10.86,0,0,1-4.48,9.27q-4.49,3.33-12.35,3.32h-7.27l-13.35,32.13h11.15q12.66,0,12.65,8.69a10.92,10.92,0,0,1-4.43,9.28q-4.42,3.31-12.4,3.32H698.33q-7.58,0-12-3.42a11.08,11.08,0,0,1-4.44-9.27,21.35,21.35,0,0,1,1.8-8l1.89-4.3,11.75-28.42h-1.49q-11.16,0-11.16-8.49a11.16,11.16,0,0,1,4.44-9.43q4.43-3.36,12.4-3.37h4.58L711.38,310l1.09-2.64q4.68-10.83,14.75-10.84a10.06,10.06,0,0,1,7,2.69,8.47,8.47,0,0,1,2.94,6.49c0,2.48-.87,5.6-2.59,9.38Z"/><path d="M790.37,327q10.46-5.57,17.23-5.56,9.57,0,15.69,5.22A16.75,16.75,0,0,1,829.41,340,27.85,27.85,0,0,1,827,350.63l-10.45,25.58H828q12.56,0,12.55,8.69a10.94,10.94,0,0,1-4.43,9.28q-4.44,3.31-12.4,3.32h-20A16.34,16.34,0,0,1,793,393.94a10.93,10.93,0,0,1-4.34-8.74,24.53,24.53,0,0,1,2.3-9l9.16-22.07a18.89,18.89,0,0,0,1.69-6.35q0-5.57-7.57-5.56-10.15,0-17.13,17L766,386.08q-5.28,12.8-15.63,12.79a10.22,10.22,0,0,1-7-2.54,7.91,7.91,0,0,1-2.89-6.15,17.71,17.71,0,0,1,1.5-6.45l1.09-2.64,43.33-104.78q5.68-13.47,15.54-13.48a10.06,10.06,0,0,1,7,2.69,8.49,8.49,0,0,1,2.93,6.49q0,3.14-2.59,9.28Z"/><path d="M868.26,368.89q0,7.32,11.26,7.32H909.1q12.55,0,12.55,8.69a10.94,10.94,0,0,1-4.43,9.28q-4.44,3.31-12.4,3.32H876.63q-15.74,0-24-7.62t-8.21-22.26a45.55,45.55,0,0,1,13-32.52q13-13.68,30.92-13.67,13.05,0,21,6.69t7.92,17.62q0,13.18-11,19.53-6.07,3.62-18.13,3.62ZM873,351.11h11c7.11,0,10.56-1.52,10.36-4.59q-.3-5.17-6.87-5.17Q878.33,341.35,873,351.11Z"/><path d="M950.34,344.18l-3.39,8.2q-4.58,11-12,10.94a10.86,10.86,0,0,1-7.47-2.64,8.36,8.36,0,0,1-3-6.54c0-1.5.73-4,2.19-7.62L938,319.28q4.08-9.87,11.55-9.87t9.07,6.84l.8,3c.39,1.56,1,2.54,1.79,2.93s2.75.58,5.88.58h23.3q13.05,0,13,9,0,12.41-16.53,12.4l-1.1,1Q970,360,970,368.11t9.17,8.1h12.55q12.65,0,12.65,8.6a11,11,0,0,1-4.43,9.37q-4.44,3.31-12.4,3.32H968q-10,0-16.28-6.74t-6.33-17.48A28.22,28.22,0,0,1,948.75,360q3.38-6.45,12-15.82Z"/><path d="M1032.62,368.89q0,7.32,11.25,7.32h29.59q12.55,0,12.55,8.69a10.94,10.94,0,0,1-4.43,9.28q-4.44,3.31-12.41,3.32H1041q-15.75,0-24-7.62t-8.22-22.26a45.55,45.55,0,0,1,13-32.52q13-13.68,30.93-13.67,13,0,21,6.69t7.92,17.62q0,13.18-11,19.53-6.08,3.62-18.13,3.62Zm4.78-17.78h11c7.1,0,10.55-1.52,10.36-4.59q-.3-5.17-6.88-5.17Q1042.68,341.35,1037.4,351.11Z"/><path d="M1157.83,376.21h11q12.56,0,12.55,8.6a11,11,0,0,1-4.48,9.32q-4.49,3.38-12.35,3.37h-12.75q-8.57,0-11.65-6.54-7.47,6.54-14.45,6.54H1114.3q-11,0-17.68-7.67t-6.73-20.06q0-18.75,13.2-33.55t29.83-14.79q12.75,0,18.63,8.69,5-7.32,13-7.33a10.35,10.35,0,0,1,7.32,2.74,8.84,8.84,0,0,1,2.94,6.74,17.53,17.53,0,0,1-1.59,6.54l-1.1,2.64Zm-36.16.49h2.49q8.16,0,10.86-6.54l7-16.9a15,15,0,0,0,1.39-5.56,5.63,5.63,0,0,0-2.64-4.59,10.29,10.29,0,0,0-6.32-2q-7.28,0-14.15,8.3t-6.87,17.19Q1113.4,376.71,1121.67,376.7Z"/><path d="M1211.82,376.21h10.45q12.66,0,12.65,8.69a10.92,10.92,0,0,1-4.43,9.28q-4.42,3.31-12.4,3.32h-17.93q-7.37,0-11.65-3.42a11.12,11.12,0,0,1-4.29-9.18q0-3,2.89-10.06l40.24-97.07,1.1-2.63q4.58-10.93,14.64-10.94a10.08,10.08,0,0,1,7.12,2.73,8.65,8.65,0,0,1,2.94,6.55,18,18,0,0,1-1.49,6.64l-1.1,2.63Z"/><path d="M1302.11,331.08q-7.35-6-7.35-13.82,0-6.36,4.16-17.05l10.91-27.87,1.22-3.24a30,30,0,0,0,2.21-8.53q.24-5.06-10.54-5.65c-5.56-.32-9.47-1.38-11.76-3.18s-3.43-4.75-3.43-8.83q0-8.16,5.82-12.91t16-4.75h5l4.17.12,8.82.24q25,0,25,16.94,0,8.41-4.78,20.66l-12.37,31.71q-3.43,8.65-3.43,13.45,0,4.45,6,8.17c3.43,2,5.64,3.67,6.62,5a9.68,9.68,0,0,1,1.47,5.82q0,14.53-16.91,18.26-8.46,1.92-13.23,6.61t-8.82,15L1297,392.34q-14.7,37.59-48.27,37.59l-5.51.24-4.17.12h-5.51q-14.7,0-14.71-11.89,0-17.77,24.39-17.78c7.18,0,12.11-1,14.76-3s5.49-6.8,8.52-14.41l8.33-21.26q4.77-12.26,10.59-18.86T1302.11,331.08Z"/></g><path d="M282,366.13l-1.58-6.59a69.5,69.5,0,0,1,30-75.05c25.23-16,61-11.87,85,9.8l5,4.55-5.84,3.46c-16,9.51-32.51,18.6-50,28.24-18.39,10.13-37.4,20.62-56.81,32.13Zm63.14-81.39a54.5,54.5,0,0,0-29.32,8.2,59.38,59.38,0,0,0-26.91,57.49c17.39-10.18,34.4-19.55,50.91-28.65,15.15-8.35,29.57-16.3,43.52-24.44A65.47,65.47,0,0,0,345.16,284.74Z"/><path d="M186.14,422.1l-2.21-5.56c-8.82-22.28-26.36-80.75,1.26-142.09,31.13-69.17,106.27-111.93,182.72-104A179,179,0,0,1,472,218.13,184.77,184.77,0,0,1,528,319.7l.62,3.29-2.78,1.86c-27.55,18.5-56.18,36.14-85.08,52.45-20.62,11.64-41.84,22.86-63.06,33.33a66,66,0,0,1-43.83,5.52,68.52,68.52,0,0,1-30.1-15l-5.4-4.65,148.86-86.24a103.6,103.6,0,0,0-195.7,68l1.29,3.86ZM316.2,397.83a57.44,57.44,0,0,0,30.39,9.69,56.77,56.77,0,0,0,26.6-6c21.05-10.4,42.1-21.53,62.56-33.07,27.7-15.63,55.14-32.5,81.61-50.16-15.4-73.66-76.84-130.08-150.5-137.75-72.17-7.5-143.06,32.82-172.42,98.05-24,53.25-11.78,104.37-3.18,128.58l49.4-29.63A113.75,113.75,0,0,1,458.18,311l1.22,3.88Z"/><path d="M342.68,521.64c-26.83,0-52.61-5.54-75-16.5-23.15-11.33-43.31-28.66-59.91-51.49L204.39,449l65.51-36.1,2.69,3.1a101.49,101.49,0,0,0,40.9,28.75c37.29,14,71.07.87,84-5.51l130.14-76.85-.77,9.73a146.33,146.33,0,0,1-16.78,58.38C490,467.66,451.43,497.41,404.2,512.12A207.52,207.52,0,0,1,342.68,521.64ZM219.43,452.29c14.93,19.21,32.64,33.91,52.72,43.74,77.65,38,189,3.82,229-70.36a133.09,133.09,0,0,0,14.48-44.41l-113.3,66.9-.17.09c-14,6.94-51.09,21.42-92.26,6a111.26,111.26,0,0,1-42.26-28.54Z"/><g id="katman_1-2-2" data-name="katman 1-2-2"><path d="M342.87,481.71h-.14a9.25,9.25,0,0,1-9.1-9.39,9.14,9.14,0,0,1,2.75-6.48,9.27,9.27,0,0,1,6.51-2.62H343a9.25,9.25,0,0,1-.16,18.49Zm-.07-14.49a5.17,5.17,0,0,0-5.17,5.12v0a5.24,5.24,0,1,0,10.48.17,5.26,5.26,0,0,0-5.16-5.33l-.08-2,0,2Z"/><rect x="256.73" y="200.17" width="124.17" height="4"/><path d="M385.18,208.14a6.37,6.37,0,1,1,6.44-6.37A6.41,6.41,0,0,1,385.18,208.14Zm0-8.74a2.37,2.37,0,1,0,2.44,2.37A2.4,2.4,0,0,0,385.18,199.4Z"/><path d="M343.23,222.27a6.38,6.38,0,1,1,6.44-6.38A6.42,6.42,0,0,1,343.23,222.27Zm0-8.75a2.38,2.38,0,1,0,2.44,2.37A2.42,2.42,0,0,0,343.23,213.52Z"/><polygon points="308.35 225.15 228.07 225.15 228.07 221.15 307.93 221.15 338.29 214.71 339.12 218.62 308.35 225.15"/><path d="M416.9,238a6.38,6.38,0,1,1,6.44-6.38A6.42,6.42,0,0,1,416.9,238Zm0-8.75a2.38,2.38,0,1,0,2.44,2.37A2.41,2.41,0,0,0,416.9,229.25Z"/><rect x="189.65" y="279.88" width="70.85" height="4"/><rect x="436.26" y="274.5" width="70.85" height="4"/><rect x="450.09" y="300.62" width="70.85" height="4"/><rect x="310.27" y="392.77" width="85.54" height="4"/><rect x="401.69" y="246.8" width="67.11" height="4" transform="translate(-0.36 0.64) rotate(-0.08)"/><rect x="343.3" y="372.8" width="55.58" height="4" transform="translate(-0.55 0.54) rotate(-0.08)"/><rect x="381.71" y="351.29" width="54.56" height="4" transform="translate(-0.52 0.6) rotate(-0.08)"/><rect x="425.77" y="326.66" width="50.46" height="4"/><polygon points="195.46 268.69 195.46 264.69 228.54 264.63 239.14 254.51 260.58 254.51 277.1 240.88 279.64 243.96 262.01 258.51 240.74 258.51 230.15 268.63 195.46 268.69"/><rect x="265.55" y="253.89" width="4" height="17.64" transform="translate(-107.37 268.23) rotate(-45.32)"/><rect x="180.95" y="300.88" width="69.49" height="4"/><polygon points="219.95 322.84 178.66 322.84 178.66 318.84 219.05 318.84 246.33 305.86 248.05 309.47 219.95 322.84"/><rect x="176.06" y="348.33" width="65.67" height="4"/><rect x="176.61" y="370.23" width="67.67" height="4"/><polygon points="183.14 392.16 183.13 388.16 229.93 388.12 229.95 392.12 183.14 392.16"/><polygon points="300.92 464.55 245.8 464.55 229.03 445.27 213.97 451.39 212.46 447.69 230.18 440.49 247.62 460.55 298.63 460.55 306.24 447.5 309.7 449.52 300.92 464.55"/><polygon points="412.07 464.19 400.51 445.47 403.91 443.37 413.86 459.47 459.41 445.83 460.56 449.66 412.07 464.19"/><path d="M465.38,455.32a8.22,8.22,0,1,1,8.32-8.21A8.27,8.27,0,0,1,465.38,455.32Zm0-12.43a4.22,4.22,0,1,0,4.32,4.22A4.27,4.27,0,0,0,465.38,442.89Z"/><polygon points="325.73 489.01 250.69 489.01 250.69 485.01 324.33 485.01 336.57 475.32 339.05 478.46 325.73 489.01"/><path d="M378.4,494.26a8.83,8.83,0,1,1,8.93-8.83A8.89,8.89,0,0,1,378.4,494.26Zm0-13.65a4.83,4.83,0,1,0,4.93,4.82A4.88,4.88,0,0,0,378.4,480.61Z"/><polygon points="361.94 503.91 271.35 503.79 271.35 499.79 360.4 499.9 372.61 488.9 375.29 491.88 361.94 503.91"/></g><rect x="378.34" y="233.79" width="34.09" height="4" transform="translate(-37.67 79.61) rotate(-10.98)"/><path d="M404,381.62a6.35,6.35,0,1,1,6.36-6.35A6.36,6.36,0,0,1,404,381.62Zm0-8.7a2.35,2.35,0,1,0,2.36,2.35A2.35,2.35,0,0,0,404,372.92Z"/><path d="M440.11,359.34a6.35,6.35,0,1,1,6.36-6.35A6.36,6.36,0,0,1,440.11,359.34Zm0-8.7a2.35,2.35,0,1,0,2.36,2.35A2.35,2.35,0,0,0,440.11,350.64Z"/><path d="M480.33,335a6.36,6.36,0,1,1,6.35-6.36A6.37,6.37,0,0,1,480.33,335Zm0-8.71a2.36,2.36,0,1,0,2.35,2.35A2.36,2.36,0,0,0,480.33,326.31Z"/><path d="M472.64,254.6a6.36,6.36,0,1,1,6.35-6.35A6.36,6.36,0,0,1,472.64,254.6Zm0-8.71a2.36,2.36,0,1,0,2.35,2.36A2.36,2.36,0,0,0,472.64,245.89Z"/><path d="M281.34,245.64a6.36,6.36,0,1,1,6.35-6.35A6.36,6.36,0,0,1,281.34,245.64Zm0-8.71a2.36,2.36,0,1,0,2.35,2.36A2.36,2.36,0,0,0,281.34,236.93Z"/><path d="M314.14,597.88h-.26A16.16,16.16,0,0,1,298,581.49a16,16,0,0,1,16-15.89h.39a16.14,16.14,0,0,1-.24,32.28ZM314,569.6a12,12,0,0,0-12,11.88v.07a12.17,12.17,0,0,0,11.95,12.33h.2a12.14,12.14,0,0,0,.18-24.28H314Z"/><path class="cls-2" d="M577.21,94.05C557,76.5,462.83-1.44,325.29,5.93,239.72,10.52,171.38,51.2,166.21,54.32a326.11,326.11,0,0,0-36.28,25.32C26.27,163.58,8.77,299.48,8,306.43,4.91,333.05-3.64,418.05,46,507.53c70.91,127.8,202.77,160.39,224.54,165.4,29.39,6.75,133.36,26.62,237.32-28.77A319.93,319.93,0,0,0,590,581.24L476.8,468c-73.89,48.65-160.67,57.93-220.89,21.58C216.65,465.84,196,427.13,193.85,423c-4.53-8.71-25.11-50.2-16.8-103.56,8.18-52.62,43.72-112.15,109.9-137.35a177.44,177.44,0,0,1,175.25,28.8Q519.71,152.45,577.21,94.05Z"/><path d="M351.81,687.4a373.37,373.37,0,0,1-82.49-9.17c-36.26-8.35-159.87-45.13-228.08-168.06A327.91,327.91,0,0,1,1.81,384,350.78,350.78,0,0,1,2.6,305.8C2.76,304.29,7,267.63,25.3,220,48.49,159.65,82.54,111,126.5,75.42a333.85,333.85,0,0,1,36.9-25.76C170.93,45.12,239.51,5.09,325,.5,454.87-6.46,547.13,60.73,580.77,90l4.37,3.79-4.06,4.12-115,116.84-3.48,3.54-3.84-3.15a172.49,172.49,0,0,0-169.88-27.92c-67.21,25.59-99.06,85.54-106.45,133.1-7.46,47.91,8.88,86.05,16.25,100.22,2.18,4.2,22.45,41.7,60.05,64.44,57.83,34.91,142.26,26.48,215.09-21.47l3.7-2.44,120,120.1L594,585a324.34,324.34,0,0,1-83.54,64c-45.1,24-95.25,36.93-149,38.33Q356.6,687.4,351.81,687.4ZM343.7,10.87q-8.93,0-18.12.49C242.73,15.8,176.31,54.57,169,59a323.55,323.55,0,0,0-35.68,24.91c-42.45,34.37-75.39,81.47-97.88,140-17.83,46.37-22,82.8-22.05,83.17C3,396.25,28,463.87,50.75,504.89c66,119,185.85,154.65,221,162.74,37.92,8.71,136.59,23.39,233.55-28.27a313.36,313.36,0,0,0,77.1-58L476.06,475c-43.71,27.86-91.35,42.15-135.42,42.15-32,0-62.13-7.53-87.54-22.87-39.31-23.77-60.27-61.42-64.08-68.72-7.86-15.13-25.3-55.82-17.34-106.91a188.25,188.25,0,0,1,34.19-81.35A176.34,176.34,0,0,1,285,177a183.41,183.41,0,0,1,176.75,26.58Q515.49,149,569.23,94.4C535.25,66,454.94,10.87,343.7,10.87Z"/><rect x="157.45" y="57.79" width="242" height="4"/><path d="M408.12,70.28a10.54,10.54,0,1,1,10.67-10.54A10.61,10.61,0,0,1,408.12,70.28Zm0-17.08a6.54,6.54,0,1,0,6.67,6.54A6.61,6.61,0,0,0,408.12,53.2Z"/><path d="M350.5,125.35a10.54,10.54,0,1,1,10.66-10.54A10.61,10.61,0,0,1,350.5,125.35Zm0-17.08a6.54,6.54,0,1,0,6.66,6.54A6.61,6.61,0,0,0,350.5,108.27Z"/><polygon points="417.52 150.37 280.15 149.78 232.39 96.38 235.38 93.72 281.94 145.78 415.95 146.37 450.1 114.76 452.81 117.7 417.52 150.37"/><polygon points="342.3 111.88 316.46 97.05 113.54 97.28 113.53 93.28 317.53 93.05 344.29 108.42 342.3 111.88"/><path d="M458.67,122.06a10.54,10.54,0,1,1,10.67-10.54A10.62,10.62,0,0,1,458.67,122.06Zm0-17.08a6.54,6.54,0,1,0,6.67,6.54A6.62,6.62,0,0,0,458.67,105Z"/><rect x="38.93" y="199.35" width="211.51" height="4"/><polygon points="93.29 181.87 64.48 181.87 64.48 177.87 91.68 177.87 112.37 158.1 154.15 158.1 186.93 131.06 189.48 134.14 155.58 162.1 113.98 162.1 93.29 181.87"/><path d="M195.93,137.53a13.39,13.39,0,1,1,13.58-13.39A13.49,13.49,0,0,1,195.93,137.53Zm0-22.78a9.39,9.39,0,1,0,9.58,9.39A9.49,9.49,0,0,0,195.93,114.75Z"/><rect x="168.82" y="153.23" width="4" height="44" transform="translate(-73.87 178.71) rotate(-46.55)"/><rect x="20.54" y="248.55" width="182.77" height="4"/><polygon points="91.97 287.7 11.53 287.7 11.53 283.7 90.56 283.7 116.13 263.32 194.83 263.39 194.82 267.39 117.52 267.32 91.97 287.7"/><polygon points="144.01 323.93 6.46 323.93 6.46 319.93 142.58 319.93 183.95 286.01 186.48 289.11 144.01 323.93"/><rect x="5.43" y="348.37" width="169.75" height="4"/><polygon points="188.8 416.6 150.28 388 7.54 388.1 7.53 384.1 151.61 384 191.19 413.39 188.8 416.6"/><polygon points="126.18 451.6 21 451.6 21 447.6 117.21 447.6 95.25 423.13 13.26 423.05 13.27 419.05 97.04 419.13 126.18 451.6"/><rect x="44.35" y="502.39" width="244.72" height="4" transform="translate(-0.62 0.2) rotate(-0.07)"/><polygon points="218.82 546.38 113.58 546.38 88.02 521.21 52.75 521.15 52.76 517.15 89.67 517.21 115.22 542.38 217.17 542.38 257.2 502.88 260.01 505.72 218.82 546.38"/><polygon points="542.78 535.48 431.87 535.48 397.94 504.97 400.61 501.99 433.4 531.48 542.78 531.48 542.78 535.48"/><path d="M528.33,604.37a14.14,14.14,0,1,1,14.33-14.14A14.25,14.25,0,0,1,528.33,604.37Zm0-24.28a10.14,10.14,0,1,0,10.33,10.14A10.25,10.25,0,0,0,528.33,580.09Z"/><polygon points="215.5 611.67 212.91 608.63 279.82 551.81 280.57 551.82 494.36 554.23 521.21 580.07 518.44 582.95 492.73 558.21 281.27 555.83 215.5 611.67"/><polygon points="280 612.15 134.16 612.15 134.16 608.15 278.61 608.15 303.01 588.81 305.5 591.95 280 612.15"/><path d="M383.5,622.39A15.33,15.33,0,1,1,399,607.06,15.46,15.46,0,0,1,383.5,622.39Zm0-26.66A11.33,11.33,0,1,0,395,607.06,11.45,11.45,0,0,0,383.5,595.73Z"/><polygon points="350.63 641.22 349.86 641.22 181.86 641.1 181.87 637.1 349.1 637.22 373.48 615.25 376.15 618.23 350.63 641.22"/></g></g></svg>